<svg xmlns="http://www.w3.org/2000/svg" xmlns:xlink="http://www.w3.org/1999/xlink" width="200" viewBox="0 0 150 37.5" height="50" preserveAspectRatio="xMidYMid meet"><defs><clipPath id="fe45e013b6"><path d="M 0.988281 0 L 149.011719 0 L 149.011719 37.007812 L 0.988281 37.007812 Z M 0.988281 0 " clip-rule="nonzero"></path></clipPath><clipPath id="cefaaa51db"><path d="M 11.964844 0 L 137.433594 0 L 137.433594 37.007812 L 11.964844 37.007812 Z M 11.964844 0 " clip-rule="nonzero"></path></clipPath><clipPath id="dd72d97ffe"><path d="M 86.804688 8.589844 L 108.382812 8.589844 L 108.382812 28.03125 L 86.804688 28.03125 Z M 86.804688 8.589844 " clip-rule="nonzero"></path></clipPath><clipPath id="8121d14606"><path d="M 96.144531 5.148438 L 99 5.148438 L 99 16.996094 L 96.144531 16.996094 Z M 96.144531 5.148438 " clip-rule="nonzero"></path></clipPath><clipPath id="234386896d"><path d="M 110.566406 13.632812 L 122.296875 13.632812 L 122.296875 26.742188 L 110.566406 26.742188 Z M 110.566406 13.632812 " clip-rule="nonzero"></path></clipPath></defs><g clip-path="url(#fe45e013b6)"><path fill="#ffffff" d="M 0.988281 0 L 149.011719 0 L 149.011719 37.007812 L 0.988281 37.007812 Z M 0.988281 0 " fill-opacity="1" fill-rule="nonzero"></path><path fill="#ffffff" d="M 0.988281 0 L 149.011719 0 L 149.011719 37.007812 L 0.988281 37.007812 Z M 0.988281 0 " fill-opacity="1" fill-rule="nonzero"></path></g><g clip-path="url(#cefaaa51db)"><path fill="#ffffff" d="M 11.964844 -44.1875 L 137.433594 -44.1875 L 137.433594 81.558594 L 11.964844 81.558594 Z M 11.964844 -44.1875 " fill-opacity="1" fill-rule="nonzero"></path><path fill="#ffffff" d="M 11.964844 -44.1875 L 137.433594 -44.1875 L 137.433594 81.558594 L 11.964844 81.558594 Z M 11.964844 -44.1875 " fill-opacity="1" fill-rule="nonzero"></path></g><g clip-path="url(#dd72d97ffe)"><path fill="#000000" d="M 97.59375 28.019531 C 91.65625 28.019531 86.828125 23.148438 86.828125 17.160156 C 86.828125 14.171875 88.070312 11.28125 90.234375 9.234375 C 90.789062 8.71875 91.648438 8.746094 92.160156 9.300781 C 92.675781 9.851562 92.648438 10.722656 92.097656 11.242188 C 90.457031 12.792969 89.550781 14.894531 89.550781 17.164062 C 89.550781 21.636719 93.160156 25.273438 97.59375 25.273438 C 102.03125 25.273438 105.640625 21.636719 105.640625 17.164062 C 105.640625 14.945312 104.765625 12.875 103.183594 11.332031 C 102.644531 10.804688 102.628906 9.933594 103.152344 9.390625 C 103.675781 8.847656 104.539062 8.828125 105.078125 9.355469 C 107.195312 11.421875 108.363281 14.195312 108.363281 17.164062 C 108.363281 23.148438 103.53125 28.019531 97.59375 28.019531 Z M 97.59375 28.019531 " fill-opacity="1" fill-rule="nonzero"></path></g><g clip-path="url(#8121d14606)"><path fill="#000000" d="M 97.59375 16.898438 C 96.84375 16.898438 96.230469 16.28125 96.230469 15.523438 L 96.230469 6.519531 C 96.230469 5.761719 96.84375 5.148438 97.59375 5.148438 C 98.347656 5.148438 98.957031 5.761719 98.957031 6.519531 L 98.957031 15.523438 C 98.957031 16.28125 98.347656 16.898438 97.59375 16.898438 Z M 97.59375 16.898438 " fill-opacity="1" fill-rule="nonzero"></path></g><path fill="#000000" d="M 28.722656 17.382812 C 29.105469 16.378906 29.75 15.558594 30.65625 14.921875 C 31.570312 14.28125 32.671875 13.960938 33.964844 13.960938 C 35.117188 13.960938 36.148438 14.21875 37.050781 14.738281 C 37.957031 15.253906 38.664062 15.996094 39.167969 16.953125 C 39.679688 17.910156 39.933594 19.027344 39.933594 20.308594 C 39.933594 21.589844 39.679688 22.710938 39.167969 23.675781 C 38.664062 24.644531 37.957031 25.390625 37.050781 25.914062 C 36.148438 26.4375 35.117188 26.703125 33.964844 26.703125 C 32.671875 26.703125 31.566406 26.382812 30.648438 25.746094 C 29.726562 25.105469 29.085938 24.285156 28.722656 23.277344 L 28.722656 26.519531 L 27.695312 26.519531 L 27.695312 9.621094 L 28.722656 9.621094 Z M 38.886719 20.308594 C 38.886719 19.183594 38.671875 18.207031 38.246094 17.382812 C 37.820312 16.5625 37.222656 15.933594 36.453125 15.503906 C 35.6875 15.070312 34.804688 14.851562 33.800781 14.851562 C 32.847656 14.851562 31.984375 15.078125 31.207031 15.523438 C 30.433594 15.972656 29.824219 16.613281 29.382812 17.441406 C 28.945312 18.273438 28.722656 19.226562 28.722656 20.308594 C 28.722656 21.40625 28.945312 22.367188 29.382812 23.199219 C 29.824219 24.027344 30.433594 24.664062 31.207031 25.117188 C 31.984375 25.566406 32.847656 25.789062 33.800781 25.789062 C 34.804688 25.789062 35.6875 25.566406 36.453125 25.125 C 37.222656 24.683594 37.820312 24.054688 38.246094 23.230469 C 38.671875 22.40625 38.886719 21.433594 38.886719 20.308594 Z M 38.886719 20.308594 " fill-opacity="1" fill-rule="nonzero"></path><path fill="#000000" d="M 42.117188 16.675781 C 42.417969 15.765625 42.957031 15.070312 43.730469 14.589844 C 44.503906 14.109375 45.492188 13.871094 46.695312 13.871094 L 46.695312 14.941406 L 46.355469 14.941406 C 45.140625 14.941406 44.128906 15.289062 43.320312 15.980469 C 42.515625 16.675781 42.117188 17.804688 42.117188 19.371094 L 42.117188 26.519531 L 41.089844 26.519531 L 41.089844 14.121094 L 42.117188 14.121094 Z M 42.117188 16.675781 " fill-opacity="1" fill-rule="nonzero"></path><path fill="#000000" d="M 46.488281 20.308594 C 46.488281 19.027344 46.742188 17.910156 47.25 16.953125 C 47.757812 15.996094 48.464844 15.253906 49.367188 14.738281 C 50.269531 14.21875 51.300781 13.960938 52.457031 13.960938 C 53.761719 13.960938 54.871094 14.28125 55.78125 14.921875 C 56.695312 15.558594 57.332031 16.371094 57.695312 17.363281 L 57.695312 14.121094 L 58.722656 14.121094 L 58.722656 26.519531 L 57.695312 26.519531 L 57.695312 23.25 C 57.332031 24.257812 56.691406 25.082031 55.769531 25.730469 C 54.851562 26.378906 53.75 26.703125 52.457031 26.703125 C 51.300781 26.703125 50.269531 26.4375 49.367188 25.914062 C 48.464844 25.390625 47.757812 24.644531 47.25 23.675781 C 46.742188 22.710938 46.488281 21.589844 46.488281 20.308594 Z M 57.695312 20.308594 C 57.695312 19.226562 57.46875 18.273438 57.023438 17.441406 C 56.574219 16.613281 55.964844 15.972656 55.1875 15.523438 C 54.417969 15.078125 53.550781 14.851562 52.59375 14.851562 C 51.589844 14.851562 50.710938 15.070312 49.949219 15.503906 C 49.191406 15.933594 48.597656 16.5625 48.171875 17.382812 C 47.75 18.207031 47.539062 19.183594 47.539062 20.308594 C 47.539062 21.433594 47.75 22.40625 48.171875 23.230469 C 48.597656 24.054688 49.195312 24.683594 49.957031 25.125 C 50.726562 25.566406 51.605469 25.789062 52.59375 25.789062 C 53.550781 25.789062 54.421875 25.566406 55.199219 25.117188 C 55.980469 24.664062 56.59375 24.027344 57.035156 23.199219 C 57.472656 22.367188 57.695312 21.40625 57.695312 20.308594 Z M 57.695312 20.308594 " fill-opacity="1" fill-rule="nonzero"></path><path fill="#000000" d="M 66.097656 13.871094 C 67.570312 13.871094 68.769531 14.324219 69.695312 15.230469 C 70.621094 16.132812 71.085938 17.476562 71.085938 19.257812 L 71.085938 26.519531 L 70.085938 26.519531 L 70.085938 19.328125 C 70.085938 17.851562 69.714844 16.71875 68.96875 15.933594 C 68.222656 15.152344 67.214844 14.757812 65.941406 14.757812 C 64.605469 14.757812 63.535156 15.1875 62.738281 16.039062 C 61.941406 16.890625 61.542969 18.152344 61.542969 19.828125 L 61.542969 26.519531 L 60.515625 26.519531 L 60.515625 14.121094 L 61.542969 14.121094 L 61.542969 16.742188 C 61.890625 15.816406 62.472656 15.105469 63.28125 14.609375 C 64.097656 14.117188 65.035156 13.871094 66.097656 13.871094 Z M 66.097656 13.871094 " fill-opacity="1" fill-rule="nonzero"></path><path fill="#000000" d="M 72.132812 20.308594 C 72.132812 19.027344 72.386719 17.910156 72.894531 16.953125 C 73.402344 15.996094 74.109375 15.253906 75.011719 14.738281 C 75.914062 14.21875 76.945312 13.960938 78.101562 13.960938 C 79.359375 13.960938 80.453125 14.277344 81.378906 14.910156 C 82.308594 15.539062 82.960938 16.359375 83.339844 17.363281 L 83.339844 9.621094 L 84.367188 9.621094 L 84.367188 26.519531 L 83.339844 26.519531 L 83.339844 23.230469 C 82.972656 24.25 82.335938 25.082031 81.425781 25.730469 C 80.515625 26.378906 79.40625 26.703125 78.101562 26.703125 C 76.945312 26.703125 75.914062 26.4375 75.011719 25.914062 C 74.109375 25.390625 73.402344 24.644531 72.894531 23.675781 C 72.386719 22.710938 72.132812 21.589844 72.132812 20.308594 Z M 83.339844 20.308594 C 83.339844 19.226562 83.113281 18.273438 82.667969 17.441406 C 82.21875 16.613281 81.609375 15.972656 80.832031 15.523438 C 80.0625 15.078125 79.195312 14.851562 78.238281 14.851562 C 77.234375 14.851562 76.355469 15.070312 75.59375 15.503906 C 74.835938 15.933594 74.242188 16.5625 73.816406 17.382812 C 73.394531 18.207031 73.183594 19.183594 73.183594 20.308594 C 73.183594 21.433594 73.394531 22.40625 73.816406 23.230469 C 74.242188 24.054688 74.839844 24.683594 75.601562 25.125 C 76.371094 25.566406 77.25 25.789062 78.238281 25.789062 C 79.195312 25.789062 80.066406 25.566406 80.84375 25.117188 C 81.625 24.664062 82.238281 24.027344 82.679688 23.199219 C 83.117188 22.367188 83.339844 21.40625 83.339844 20.308594 Z M 83.339844 20.308594 " fill-opacity="1" fill-rule="nonzero"></path><g clip-path="url(#234386896d)"><path fill="#000000" d="M 116.90625 13.777344 C 118.425781 13.777344 119.652344 14.238281 120.59375 15.15625 C 121.539062 16.078125 122.007812 17.40625 122.007812 19.144531 L 122.007812 26.519531 L 119.960938 26.519531 L 119.960938 19.4375 C 119.960938 18.191406 119.648438 17.238281 119.023438 16.574219 C 118.398438 15.914062 117.550781 15.582031 116.476562 15.582031 C 115.378906 15.582031 114.511719 15.925781 113.863281 16.613281 C 113.21875 17.292969 112.894531 18.292969 112.894531 19.601562 L 112.894531 26.519531 L 110.824219 26.519531 L 110.824219 14.007812 L 112.894531 14.007812 L 112.894531 15.789062 C 113.304688 15.148438 113.867188 14.652344 114.570312 14.300781 C 115.277344 13.953125 116.054688 13.777344 116.90625 13.777344 Z M 116.90625 13.777344 " fill-opacity="1" fill-rule="nonzero"></path></g></svg>